<svg width="174" height="61" viewBox="0 0 174 61" fill="none" xmlns="http://www.w3.org/2000/svg">
<path d="M68.084 49.8103V21.6197C68.084 19.5196 68.5467 17.6331 69.4722 15.9602C70.4332 14.2517 71.768 12.9169 73.4765 11.9558C75.1851 10.9592 77.2139 10.4609 79.5632 10.4609C81.3429 10.4609 82.8912 10.7634 84.2082 11.3685C85.5608 11.938 86.7354 12.7389 87.732 13.7711L82.6065 18.8967C82.2505 18.5408 81.8412 18.2738 81.3785 18.0958C80.9513 17.8823 80.4352 17.7755 79.8301 17.7755C78.7267 17.7755 77.8546 18.0958 77.2139 18.7365C76.5732 19.3772 76.2529 20.2493 76.2529 21.3527V49.8103H68.084ZM62.3711 30.803V23.8621H83.7277V30.803H62.3711ZM99.3747 50.3976C96.7051 50.3976 94.2847 49.8103 92.1135 48.6357C89.9778 47.4255 88.2871 45.7882 87.0413 43.7237C85.7955 41.6592 85.1726 39.3456 85.1726 36.7828C85.1726 34.22 85.7955 31.9242 87.0413 29.8953C88.2871 27.8665 89.9778 26.2647 92.1135 25.0901C94.2491 23.8799 96.6695 23.2748 99.3747 23.2748C102.08 23.2748 104.5 23.8621 106.636 25.0367C108.772 26.2113 110.462 27.8309 111.708 29.8953C112.954 31.9242 113.577 34.22 113.577 36.7828C113.577 39.3456 112.954 41.6592 111.708 43.7237C110.462 45.7882 108.772 47.4255 106.636 48.6357C104.5 49.8103 102.08 50.3976 99.3747 50.3976ZM99.3747 42.9762C100.549 42.9762 101.582 42.7271 102.471 42.2287C103.361 41.6948 104.038 40.9651 104.5 40.0397C104.999 39.0786 105.248 37.993 105.248 36.7828C105.248 35.5726 104.999 34.5226 104.5 33.6327C104.002 32.7073 103.308 31.9954 102.418 31.4971C101.564 30.9632 100.549 30.6962 99.3747 30.6962C98.2357 30.6962 97.2212 30.9632 96.3314 31.4971C95.4415 31.9954 94.7474 32.7073 94.2491 33.6327C93.7508 34.5582 93.5016 35.626 93.5016 36.8362C93.5016 38.0108 93.7508 39.0786 94.2491 40.0397C94.7474 40.9651 95.4415 41.6948 96.3314 42.2287C97.2212 42.7271 98.2357 42.9762 99.3747 42.9762ZM117.644 49.8103V11.0482H125.813V49.8103H117.644ZM131.565 49.8103V23.8621H139.734V49.8103H131.565ZM135.676 20.2849C134.395 20.2849 133.327 19.8578 132.473 19.0035C131.654 18.1136 131.245 17.0458 131.245 15.8C131.245 14.5186 131.654 13.4508 132.473 12.5965C133.327 11.7423 134.395 11.3151 135.676 11.3151C136.958 11.3151 138.008 11.7423 138.826 12.5965C139.645 13.4508 140.054 14.5186 140.054 15.8C140.054 17.0458 139.645 18.1136 138.826 19.0035C138.008 19.8578 136.958 20.2849 135.676 20.2849ZM157.98 50.3976C155.31 50.3976 152.89 49.8103 150.719 48.6357C148.583 47.4255 146.892 45.7882 145.647 43.7237C144.401 41.6592 143.778 39.3456 143.778 36.7828C143.778 34.22 144.401 31.9242 145.647 29.8953C146.892 27.8665 148.583 26.2647 150.719 25.0901C152.854 23.8799 155.275 23.2748 157.98 23.2748C160.685 23.2748 163.106 23.8621 165.241 25.0367C167.377 26.2113 169.068 27.8309 170.313 29.8953C171.559 31.9242 172.182 34.22 172.182 36.7828C172.182 39.3456 171.559 41.6592 170.313 43.7237C169.068 45.7882 167.377 47.4255 165.241 48.6357C163.106 49.8103 160.685 50.3976 157.98 50.3976ZM157.98 42.9762C159.155 42.9762 160.187 42.7271 161.077 42.2287C161.967 41.6948 162.643 40.9651 163.106 40.0397C163.604 39.0786 163.853 37.993 163.853 36.7828C163.853 35.5726 163.604 34.5226 163.106 33.6327C162.607 32.7073 161.913 31.9954 161.023 31.4971C160.169 30.9632 159.155 30.6962 157.98 30.6962C156.841 30.6962 155.827 30.9632 154.937 31.4971C154.047 31.9954 153.353 32.7073 152.854 33.6327C152.356 34.5582 152.107 35.626 152.107 36.8362C152.107 38.0108 152.356 39.0786 152.854 40.0397C153.353 40.9651 154.047 41.6948 154.937 42.2287C155.827 42.7271 156.841 42.9762 157.98 42.9762Z" fill="#141727"/>
<path d="M44.7473 42.5372C45.5818 43.4222 46.9757 43.4633 47.8607 42.6289L51.2817 39.4035C52.2282 38.5112 52.1991 36.9972 51.219 36.1418L46.8303 32.3116C45.7852 31.3994 45.8334 29.7598 46.9304 28.9107L51.5368 25.3452C52.5655 24.5489 52.6835 23.0393 51.7911 22.0928L48.5657 18.6719C47.7313 17.7869 46.3374 17.7458 45.4524 18.5802L34.7236 28.6954C33.8385 29.5298 33.7975 30.9237 34.632 31.8087L44.7473 42.5372Z" fill="#893EFB"/>
<path d="M17.4423 44.9872C16.5573 45.8216 16.5163 47.2155 17.3507 48.1005L20.5754 51.5207C21.4681 52.4675 22.9826 52.4381 23.8378 51.4574L27.6434 47.0937C28.553 46.0507 30.1879 46.0952 31.0394 47.1862L34.6331 51.7902C35.4313 52.8129 36.9362 52.9275 37.8801 52.0376L41.2761 48.8359C42.1611 48.0015 42.2021 46.6076 41.3677 45.7226L31.2523 34.994C30.4179 34.109 29.024 34.068 28.139 34.9024L17.4423 44.9872Z" fill="#5F41FB"/>
<path d="M15.5648 18.3577C14.7304 17.4727 13.3365 17.4316 12.4515 18.266L9.03118 21.4907C8.08441 22.3833 8.1138 23.8978 9.09449 24.753L13.4575 28.5578C14.5008 29.4676 14.456 31.103 13.3644 31.9543L8.79512 35.5179C7.77186 36.3159 7.6569 37.8212 8.54711 38.7653L11.7483 42.1605C12.5827 43.0455 13.9766 43.0865 14.8616 42.2521L25.5583 32.1673C26.4433 31.3329 26.4843 29.9391 25.6499 29.0541L15.5648 18.3577Z" fill="#893EFB"/>
<path d="M42.8717 15.845C43.7567 15.0106 43.7977 13.6168 42.9633 12.7318L39.7379 9.31086C38.8455 8.36436 37.3315 8.39344 36.4761 9.3735L32.6465 13.7613C31.7341 14.8067 30.0939 14.7581 29.245 13.6605L25.7094 9.08929C24.9133 8.06003 23.4031 7.94163 22.4564 8.83425L19.0361 12.0589C18.151 12.8933 18.11 14.2872 18.9445 15.1722L29.0295 25.8686C29.8639 26.7536 31.2578 26.7946 32.1428 25.9602L42.8717 15.845Z" fill="#5F41FB"/>
</svg>
